<?xml version="1.0" encoding="utf-8"?>
<!-- Generator: Adobe Illustrator 19.0.0, SVG Export Plug-In . SVG Version: 6.00 Build 0)  -->
<svg version="1.1" xmlns="http://www.w3.org/2000/svg" xmlns:xlink="http://www.w3.org/1999/xlink" x="0px" y="0px"
	 viewBox="0 0 1366 768" style="enable-background:new 0 0 1366 768;" xml:space="preserve">
<style type="text/css">
	.st0{fill:#003366;stroke:#000000;stroke-miterlimit:10;}
	.st1{fill:#A3A3A3;}
	.st2{fill:#F4D41E;}
	.st3{fill:#FFFFFF;stroke:#000000;stroke-miterlimit:10;}
	.st4{fill:none;stroke:#034A84;stroke-width:19;stroke-miterlimit:10;}
	.st5{fill:#FFFFFF;stroke:#D3C511;stroke-miterlimit:10;}
	.st6{fill:none;stroke:#D3C511;stroke-width:3;stroke-miterlimit:10;}
	.st7{fill:none;}
	.st8{font-family:'MeltixLightDemo';}
	.st9{font-size:122px;}
	.st10{opacity:0.3;stroke:#000000;stroke-miterlimit:10;}
	.st11{font-size:27px;}
	.st12{fill:none;stroke:#FFFFFF;stroke-miterlimit:10;}
	.st13{font-size:32px;}
	.st14{font-size:23px;}
	.st15{opacity:0.85;fill:#FFFFFF;}
</style>
<g id="BG">
	<rect id="XMLID_1_" class="st0" width="1366" height="768"/>
</g>
<g id="Body_BG">
	<rect id="XMLID_59_" y="305.6" class="st1" width="1366" height="462.4"/>
	<rect id="XMLID_11_" y="306.6" class="st2" width="108.6" height="462.4"/>
	<rect id="XMLID_14_" x="1257.4" y="306.6" class="st2" width="108.6" height="462.4"/>
</g>
<g id="Layer_5">
</g>
<g id="UI_Graphics">
	<rect id="XMLID_8_" x="354.9" y="233.3" class="st3" width="683.1" height="50"/>
	<circle id="XMLID_15_" class="st4" cx="689.3" cy="420.5" r="99.8"/>
	<circle id="XMLID_16_" class="st4" cx="522.4" cy="556.1" r="99.8"/>
	<circle id="XMLID_17_" class="st4" cx="856.3" cy="556.1" r="99.8"/>
	<circle id="XMLID_18_" class="st4" cx="353.7" cy="473.6" r="74.5"/>
	<circle id="XMLID_19_" class="st4" cx="1018.4" cy="470.6" r="74.5"/>
	<circle id="XMLID_20_" class="st4" cx="1016.3" cy="654.7" r="74.5"/>
	<circle id="XMLID_21_" class="st4" cx="359.4" cy="654.7" r="74.5"/>
	<circle id="XMLID_22_" class="st4" cx="245.2" cy="567.9" r="53.4"/>
	<circle id="XMLID_26_" class="st4" cx="689.2" cy="588.3" r="53.4"/>
	<circle id="XMLID_27_" class="st4" cx="1126.5" cy="564.9" r="53.4"/>
	<circle id="XMLID_28_" class="st4" cx="689.2" cy="703.3" r="53.4"/>
	<polyline id="XMLID_60_" class="st5" points="495,145.2 492.3,182.5 499.5,182.5 499.5,145 	"/>
	<line id="XMLID_3_" class="st6" x1="34" y1="31.5" x2="64" y2="31.5"/>
	<line id="XMLID_2_" class="st6" x1="34" y1="51.5" x2="64" y2="51.5"/>
	<line id="XMLID_4_" class="st6" x1="34" y1="41.5" x2="64" y2="41.5"/>
</g>
<g id="UI_Text">
	<rect id="XMLID_38_" x="450.9" y="59.2" class="st7" width="513.1" height="112.1"/>
	<text id="XMLID_36_" transform="matrix(1 0 0 1 450.8748 145.554)" class="st5 st8 st9">Collectr</text>
	<rect id="XMLID_12_" x="369.1" y="250.9" class="st7" width="679.8" height="57.6"/>
	<text id="XMLID_13_" transform="matrix(1 0 0 1 369.0862 270.0238)" class="st10 st8 st11">Look for your favorite collectible, , , </text>
	<rect id="XMLID_29_" x="656.3" y="408.9" class="st7" width="157.5" height="71.2"/>
	<text id="XMLID_30_" transform="matrix(1 0 0 1 656.3239 431.5649)" class="st12 st8 st13">Arts</text>
	<rect id="XMLID_44_" x="455.9" y="546.7" class="st7" width="157.5" height="71.2"/>
	<text id="XMLID_32_" transform="matrix(1 0 0 1 455.875 569.3546)" class="st12 st8 st13">Furniture</text>
	<rect id="XMLID_50_" x="811.4" y="544.6" class="st7" width="184.1" height="71.2"/>
	<text id="XMLID_45_" transform="matrix(1 0 0 1 811.3843 567.2174)" class="st12 st8 st13">Glass</text>
	<rect id="XMLID_52_" x="311" y="463.4" class="st7" width="157.5" height="71.2"/>
	<text id="XMLID_51_" transform="matrix(1 0 0 1 311.0356 479.6282)" class="st12 st8 st14">Stamps</text>
	<rect id="XMLID_54_" x="986.7" y="462.4" class="st7" width="157.5" height="71.2"/>
	<text id="XMLID_53_" transform="matrix(1 0 0 1 986.7144 478.6282)" class="st12 st8 st14">Coins</text>
	<rect id="XMLID_56_" x="334.8" y="645.7" class="st7" width="157.5" height="71.2"/>
	<text id="XMLID_55_" transform="matrix(1 0 0 1 334.8203 661.9368)" class="st12 st8 st14">Pins</text>
	<rect id="XMLID_58_" x="977.7" y="648" class="st7" width="157.5" height="71.2"/>
	<text id="XMLID_57_" transform="matrix(1 0 0 1 977.7144 664.2233)" class="st12 st8 st14">Medals</text>
	<path id="XMLID_6_" class="st15" d="M1312.2,172.4c-7.7,0-13.9,6.2-13.9,13.9c0,5.9,3.7,10.9,8.8,12.9c-0.1-1.1-0.2-2.8,0-4
		c0.3-1.1,1.6-6.9,1.6-6.9s-0.4-0.8-0.4-2.1c0-1.9,1.1-3.4,2.5-3.4c1.2,0,1.8,0.9,1.8,2c0,1.2-0.8,3-1.1,4.6
		c-0.3,1.4,0.7,2.5,2.1,2.5c2.5,0,4.4-2.6,4.4-6.3c0-3.3-2.4-5.6-5.8-5.6c-3.9,0-6.3,3-6.3,6c0,1.2,0.5,2.5,1,3.2
		c0.1,0.1,0.1,0.3,0.1,0.4c-0.1,0.4-0.3,1.4-0.4,1.6c-0.1,0.3-0.2,0.3-0.5,0.2c-1.7-0.8-2.8-3.3-2.8-5.4c0-4.4,3.2-8.4,9.2-8.4
		c4.8,0,8.5,3.4,8.5,8c0,4.8-3,8.6-7.2,8.6c-1.4,0-2.7-0.7-3.2-1.6l-0.9,3.3c-0.3,1.2-1.2,2.7-1.7,3.6c1.3,0.4,2.7,0.6,4.1,0.6
		c7.6,0,13.9-6.2,13.9-13.9C1326,178.7,1319.8,172.5,1312.2,172.4L1312.2,172.4z"/>
	<path id="XMLID_31_" class="st15" d="M1325.2,241.1c-0.3-1.1-1.2-2-2.3-2.3c-2.1-0.6-10.5-0.6-10.5-0.6s-8.4,0-10.5,0.6
		c-1.1,0.3-2,1.2-2.3,2.3c-0.4,2.1-0.6,4.3-0.6,6.5c0,2.2,0.2,4.3,0.6,6.4c0.3,1.1,1.2,2,2.3,2.3c2.1,0.6,10.5,0.6,10.5,0.6
		s8.4,0,10.5-0.6c1.1-0.3,2-1.2,2.3-2.3c0.4-2.1,0.6-4.3,0.6-6.4C1325.8,245.4,1325.6,243.2,1325.2,241.1z M1309.8,251.6v-8l7,4
		L1309.8,251.6z"/>
	<path id="XMLID_7_" class="st15" d="M1312.2,108c-3.6,0-4.1,0-5.5,0.1c-1.4,0.1-2.4,0.3-3.2,0.6c-0.9,0.3-1.6,0.8-2.4,1.5
		c-0.7,0.7-1.2,1.5-1.5,2.4c-0.3,0.9-0.6,1.8-0.6,3.2c-0.1,1.4-0.1,1.9-0.1,5.5s0,4.1,0.1,5.5c0.1,1.4,0.3,2.4,0.6,3.2
		c0.3,0.9,0.8,1.6,1.5,2.4c0.7,0.7,1.5,1.2,2.4,1.5c0.9,0.3,1.8,0.6,3.2,0.6c1.4,0.1,1.9,0.1,5.5,0.1s4.1,0,5.5-0.1
		c1.4-0.1,2.4-0.3,3.2-0.6c0.9-0.3,1.6-0.8,2.4-1.5c0.7-0.7,1.2-1.5,1.5-2.4c0.3-0.9,0.6-1.8,0.6-3.2c0.1-1.4,0.1-1.9,0.1-5.5
		s0-4.1-0.1-5.5c-0.1-1.4-0.3-2.4-0.6-3.2c-0.3-0.9-0.8-1.6-1.5-2.4c-0.7-0.7-1.5-1.2-2.4-1.5c-0.9-0.3-1.8-0.6-3.2-0.6
		C1316.2,108.1,1315.8,108,1312.2,108z M1312.2,110.5c3.6,0,4,0,5.4,0.1c1.3,0.1,2,0.3,2.5,0.5c0.6,0.2,1.1,0.5,1.5,1
		c0.5,0.5,0.8,0.9,1,1.5c0.2,0.5,0.4,1.2,0.5,2.5c0.1,1.4,0.1,1.8,0.1,5.4s0,4-0.1,5.4c-0.1,1.3-0.3,2-0.5,2.5
		c-0.2,0.6-0.5,1.1-1,1.5c-0.5,0.5-0.9,0.8-1.5,1c-0.5,0.2-1.2,0.4-2.5,0.5c-1.4,0.1-1.8,0.1-5.4,0.1c-3.6,0-4,0-5.4-0.1
		c-1.3-0.1-2-0.3-2.5-0.5c-0.6-0.2-1.1-0.5-1.5-1c-0.5-0.5-0.8-0.9-1-1.5c-0.2-0.5-0.4-1.2-0.5-2.5c-0.1-1.4-0.1-1.8-0.1-5.4
		c0-3.6,0-4,0.1-5.4c0.1-1.3,0.3-2,0.5-2.5c0.2-0.6,0.5-1.1,1-1.5c0.5-0.5,0.9-0.8,1.5-1c0.5-0.2,1.2-0.4,2.5-0.5
		C1308.1,110.4,1308.5,110.4,1312.2,110.5L1312.2,110.5z M1312.2,114.6c-3.8,0-6.9,3.1-6.9,6.9c0,3.8,3.1,6.9,6.9,6.9
		c3.8,0,6.9-3.1,6.9-6.9C1319,117.6,1315.9,114.6,1312.2,114.6z M1312.2,125.9c-2.5,0-4.5-2-4.5-4.5s2-4.5,4.5-4.5s4.5,2,4.5,4.5
		S1314.6,125.9,1312.2,125.9z M1320.9,114.3c0,0.9-0.7,1.6-1.6,1.6c-0.9,0-1.6-0.7-1.6-1.6s0.7-1.6,1.6-1.6
		C1320.2,112.7,1320.9,113.4,1320.9,114.3z"/>
	<path id="XMLID_35_" class="st15" d="M1323.5,41.9h-23.8c-0.8,0-1.5,0.7-1.5,1.5v23.8c0,0.8,0.7,1.5,1.5,1.5h12.8V58.3h-3.5v-4h3.5
		v-3c0-3.5,2.1-5.3,5.2-5.3c1.5,0,2.7,0.1,3.1,0.2v3.6h-2.1c-1.7,0-2,0.8-2,2v2.6h4l-0.5,4h-3.5v10.3h6.8c0.8,0,1.5-0.7,1.5-1.5
		V43.4C1325,42.6,1324.3,41.9,1323.5,41.9"/>
</g>
<g id="Layer_4">
</g>
</svg>
