<?xml version="1.0" encoding="utf-8"?>
<!-- Generator: Adobe Illustrator 19.0.0, SVG Export Plug-In . SVG Version: 6.00 Build 0)  -->
<svg version="1.1" xmlns="http://www.w3.org/2000/svg" xmlns:xlink="http://www.w3.org/1999/xlink" x="0px" y="0px"
	 viewBox="0 0 560 858" style="enable-background:new 0 0 560 858;" xml:space="preserve">
<style type="text/css">
	.st0{fill:#992020;}
	.st1{display:none;}
	.st2{display:inline;}
	.st3{display:inline;fill:#A01313;}
</style>
<g id="Wings">
	<path class="st0" d="M284.1,97.6c-452.8,149-209.7,493.2-209.7,493.2c-158.2-382,207.1-410.6,207.1-410.6s94.8-8.1,92.6-167.7
		C374.1,12.4,371.2,68.9,284.1,97.6z"/>
	<path class="st0" d="M278.3,758.7C731.1,609.7,488,265.4,488,265.4c158.2,382-207.1,410.6-207.1,410.6s-94.8,8.1-92.6,167.7
		C188.3,843.8,191.2,787.3,278.3,758.7z"/>
</g>
<g id="OuterCircle" class="st1">
	<circle class="st2" cx="281.6" cy="364.8" r="207.4"/>
</g>
<g id="InnerCircle" class="st1">
	<circle class="st3" cx="282.1" cy="365.3" r="171.4"/>
</g>
<g id="Let2">
</g>
<g id="Letters">
	<g>
		<path class="st0" d="M95,514.5V342.2c0-0.6-0.2-1.2-0.2-1.8c-12.4,26.6-19.4,56.2-19.4,87.4c0,31.3,7.1,60.9,19.5,87.5
			C94.8,515.1,95,514.8,95,514.5z"/>
		<path class="st0" d="M466.5,331.8c-1,3.1-1.5,6.6-1.5,10.5v172.3c0,3.6,0.4,6.9,1.2,9.8c15.2-28.8,23.8-61.7,23.8-96.5
			C490,393.2,481.5,360.5,466.5,331.8z"/>
		<path class="st0" d="M418.8,541c3.2,0,6.4-2,9.7-4.5c2.9-2.1,5-4.7,6.6-8c2-4,3-8.6,3-14v-76.8c-1,2.3-3,4.1-5.2,5.5
			c-2.9,1.8-6.3,2.8-10.3,2.8H328c-4.8,0-8.8,1.8-11.9,5.4c-1.1,1.5-2.3,3.1-3.2,5c-0.6,1.5-0.9,3.1-1.9,4.8v53.3
			c0,9.9,3.4,17.1,9.7,22c3.2,2.5,6.6,4.5,9.9,4.5h-41.3h-24h-33.9c2.3,0,4-1.4,5.1-3.9c2.2-4.8,0.5-12.8-5.1-24
			c-25.2-52.2-43.1-78.3-53.5-78.3c-5.6,0-10.4,1.7-14.2,4.9c-5.4,4.4-7.8,9.3-7,16.3h-0.1l-0.1-0.2c-0.2-0.1-0.3-0.1-0.3,0
			c-5.3-6.1-7.7-13-7-20.8c0.6-8.2,4.7-14.1,12.2-17.7c23.6-11.1,42.7-28.8,57.2-52.9c11.3-18.9,16.9-32.4,16.7-41.1
			c-0.1-4.3-1.3-7.2-3.7-7.2h33.9h24h41.3c-3.2,0-6.7,1.9-9.9,4.3c-6.4,5-9.7,12.1-9.7,21.9v87.5c1-1.2,1.1-2.3,1.9-3.3
			c0.8-1.3,1.9-2.5,3.1-3.6c3-2.5,7.1-3.8,12-3.8h94.5c4.1,0,7.4-1.2,10.3-3.9c2.2-2,4.2-4.6,5.2-7.9v-64.9c0-9.8-3.2-16.9-9.6-21.9
			c-3.2-2.5-6.4-4.3-9.6-4.3H457c-36.9-58-101.2-95.1-174.4-95.1S145.2,258,108.3,316h32.4c-3.2,0-6.7,1.9-9.9,4.3
			c-6.4,5-9.7,12.1-9.7,21.9v172.3c0,9.9,3.4,17.1,9.7,22c3.2,2.5,6.6,4.5,9.9,4.5H109c37,57,101,94,173.7,94s136.6-37,173.7-94
			H418.8z"/>
		<path class="st0" d="M278.4,323.5c-4.7,4.8-10.1,11.6-16.2,20.4c-22.7,34.3-41.9,59.4-57.8,75.4c17.2,20.7,30.5,40.4,39.9,58.9
			c9.3,18.6,15.3,30.2,17.9,34.9c4.9,9,10.3,16,15.7,21c4.6-4.8,7.1-11.3,7.1-19.6V342.2c0-5.3-1.2-10-3.2-14.1
			C280.9,326.5,279.6,324.9,278.4,323.5z"/>
	</g>
</g>
</svg>
