<?xml version="1.0" encoding="utf-8"?>
<!-- Generator: Adobe Illustrator 19.0.0, SVG Export Plug-In . SVG Version: 6.00 Build 0)  -->
<svg version="1.1" xmlns="http://www.w3.org/2000/svg" xmlns:xlink="http://www.w3.org/1999/xlink" x="0px" y="0px"
	 viewBox="0 0 1280 800" style="enable-background:new 0 0 1280 800;" xml:space="preserve">
<style type="text/css">
	.st0{fill:#06A9B4;}
	.st1{display:none;}
	.st2{display:inline;fill:#06A9B4;}
	.st3{fill:#E0E0E0;}
	.st4{fill:#FFFFFF;stroke:#FFFFFF;stroke-miterlimit:10;}
	.st5{fill:none;}
	.st6{fill:#FFFFFF;}
	.st7{font-family:'AvenirNext-Bold';}
	.st8{font-size:32px;}
	.st9{display:inline;fill:#E0E0E0;}
</style>
<g id="Background">
	<rect id="XMLID_3_" class="st0" width="1280" height="800"/>
</g>
<g id="Cracks" class="st1">
	<polygon id="XMLID_6_" class="st2" points="266,801 1279,531.8 1279,631 584.5,801 	"/>
	<polygon id="XMLID_8_" class="st2" points="-0.2,319.5 498,1 545,1 0,361.6 	"/>
	<polygon id="XMLID_10_" class="st2" points="876.1,1 1034.2,801 1080,801 934.8,1 	"/>
	<polygon id="XMLID_13_" class="st2" points="-0.2,74.3 663.5,801 781.5,800 70.7,1 0,0 	"/>
</g>
<g id="_x34_04">
	<path id="XMLID_17_" class="st3" d="M1070.7,388.2l7.2-15.2H1026v-24.1l-8.6-11.8l8.6-12.7v-20l-12.5-11.6l4.1-16.3l-18.3-10.2
		l20.4-19.1l-6.2-11.6L1026,221v-77.9l-10.7,51.4l-9.2-11.9l-9.1,10.5v-16.2l-19,22.4l-85.8,105l-1.4,24.8h-8.5l0.4,20h-15.7l4,12
		h-17.8l-17.6,11.8l-3.1,18.4l-13.8,0.5L787.5,428h72.7l7.7-13.6l12.2,2.4l3.1-7.6l19.9,10.7l9.2-3.1l21.2,13l28.5,0.6v85.6l5.8-13
		l9.8,20.3l8.5-20.3l40.8,30V428.2l9.3-7.5l6.9,7.5l5.6-8.3l9.3,8h18.9v-34h-6.9L1070.7,388.2z M912.3,374l47.7-56.2l0.2,56.2H912.3
		z"/>
	<path id="XMLID_24_" class="st4" d="M1060.3,389.2l7.2-15.7h-52v-23.6l-8.6-11.8l8.6-12.7v-20l-12.5-11.6l4.2-16.3l-18.3-10.2
		l20.4-19.1l-6.3-11.6l12.5-14.7v-77.9l-10.6,51.4l-9.2-11.9l-9.2,10.5v-16.2l-18.9,22.4L881.8,305l-1.3,24.5H872l0.4,20h-15.7l4,12
		h-17.8l-17.6,12l-3.1,18.5l-13.8,0.3l-31.4,36.1h72.7l7.7-13.3l12.2,2.6l3.1-7.6l19.9,10.8l9.2-3l21.2,13l28.4,0.6v85.6l5.9-13
		l9.9,20.3l8.9-20.3l41.3,30V429.2l8.9-7.5l6.7,7.5l5.5-8.5l9.2,7.8h18.7v-33h-6.8L1060.3,389.2z M901.9,374.5l47.7-56.2l0.2,56.2
		H901.9z"/>
	<path id="XMLID_1_" class="st3" d="M501.5,388.2l7.2-15.2H456v-24.1l-8.6-11.8l8.6-12.7v-20l-12.2-11.6l4.3-16.3l-18.3-10.2
		l20.5-19.1l-6.6-11.6L456,221v-77.9l-10.3,51.4l-9.4-11.9l-9.3,10.5v-16.2l-18.6,22.4l-85.6,105l-1.2,24.8h-8.5l0.4,20h-15.7l4,12
		h-17.8l-17.6,11.8l-3.1,18.4l-13.8,0.5L218.2,428h72.7l7.7-13.6l12.2,2.4l3.1-7.6l19.9,10.7l9.2-3.1l21.4,13l28.6,0.6v85.6l5.7-13
		l9.8,20.3l8.6-20.3l40.9,30V428.2l9.2-7.5l6.9,7.5l5.5-8.3l9.3,8H508v-34h-7.2L501.5,388.2z M357.4,374l47.7-56.2l0.2,56.2H357.4z"
		/>
	<path id="XMLID_11_" class="st3" d="M652.3,187.6c0,0-98.3,6.3-112.3,104.5V409c0,0,4.2,98.6,112.3,107.2
		c0,0,106.7,8.7,123.7-107.7V289.4C776,289.4,762.8,188.4,652.3,187.6z"/>
	<path id="XMLID_7_" class="st4" d="M640.3,187.6c0,0-98.8,6.3-112.8,104.5V409c0,0,4.7,98.6,112.8,107.2c0,0,107.2,8.7,124.2-107.7
		V289.4C764.5,289.4,750.8,188.4,640.3,187.6z"/>
	<path id="XMLID_25_" class="st4" d="M490.3,389.2l7.2-15.7h-51.9v-23.6l-8.6-11.8l8.6-12.7v-20L433,293.8l4.1-16.3l-18.3-10.2
		l20.4-19.1l-6.2-11.6l12.5-14.7v-77.9l-10.7,51.4l-9.2-11.9l-9.1,10.5v-16.2l-19,22.4L311.8,305l-1.4,24.5h-8.5l0.4,20h-15.7l4,12
		h-17.8l-17.6,12l-3.1,18.5l-13.8,0.3L207,428.5h72.7l7.7-13.3l12.2,2.6l3.1-7.6l19.9,10.8l9.2-3l21.2,13l28.5,0.6v85.6l5.9-13
		l9.8,20.3l9-20.3l41.3,30V429.2l8.8-7.5l6.7,7.5l5.4-8.5l9.2,7.8h18.8v-33h-6.9L490.3,389.2z M346.2,374.5l47.7-56.2l0.2,56.2
		H346.2z"/>
</g>
<g id="message">
	<rect id="XMLID_14_" x="177.8" y="564.9" class="st5" width="975.2" height="91.1"/>
	<text id="XMLID_15_" transform="matrix(1 0 0 1 177.7854 589.1387)" class="st6 st7 st8">Seems you’ve fallen into the abyss looking for a missing page.</text>
</g>
<g id="person" class="st1">
	<path id="XMLID_28_" class="st9" d="M641.5,447.3c0,0-10.7,5.1-12.2,12.5c0,0,1,29,29,23c0,0,10.4-15.4,10-17s0-14.6,0-14.6
		l8.9-7.5l2.2-17.9l-1.9-10.1l11.6-14.9l11.6-22.4l1.1-4.1l7.1-11.4v-10.6l-4.6-3.9l-5,7.3c0,0,2,10.5-0.2,11.6s-2.2,1.1-2.2,1.1
		l0.4,6.4l-19.8,11.6l-4.1-17.9l-0.4-9l-9.3-20.6l-7.8-20.6l-1.1-9.3l-3.7-5.2c0,0-4.1-3.7-11.1-46.3v-3.8l3.8-2l0.1-5l1.1-3.2v-6.5
		l6.9-11.8c0,0-0.9-3.7-5.7-3c-4.7,0.7-8.8,1.5-8.8,1.5L624,239.8v4.5l5,7.4l5.2,4l1.4,20.1l-1.2,22.1L611.6,275l1.7-4.2l-4.5-5.5
		l-1.5-5.7l-3-4.5l-1.2-11.9l-7.6-6.4l-6.6,4.5v35l2.6,3l6.4,0.5l6.3-0.2c0,0,16,18.6,16.5,21.1l2.5,8.9l7.7,5.9l-0.5,12.9l5.6,15.9
		v6.5l3.9,5.4l-1.2,15.2l3.4,6.9l-0.7,9.4l-5.4,10.8l-1.8-15.2l1.8-4l0.7-13.7l-3.3,4.3l2.2-11.9l-5.1,2.9l-1.5,2l-5.1,7v5.2l5,8.9
		v7.8l-1.5,2.4l0.8,13.7l0.8,13.4l4.4,6.9l1.1,14.1L641.5,447.3z"/>
	<path id="XMLID_27_" class="st2" d="M645,442.9c0,0-10.7,5.1-12.2,12.5c0,0,1,29,29,23c0,0,10.4-15.4,10-17c-0.4-1.6,0-14.6,0-14.6
		l8.9-7.5l2.2-17.9l-1.9-10.1l11.6-14.9l11.6-22.4l0.9-4.1l6.8-11.4v-10.6l-4.3-3.9l-4.8,7.3c0,0,2.1,10.5-0.2,11.6
		s-2.1,1.1-2.1,1.1l0.4,6.4l-19.8,11.6l-4.1-17.9l-0.4-9l-9.3-20.6l-7.8-20.6l-1.1-9.3l-3.9-5.2c0,0-4.4-3.7-11.4-46.3v-3.8l4.1-2
		l0.5-5l1.5-3.2v-6.5l6.7-11.8c0,0-1.1-3.7-5.8-3c-4.7,0.7-8.6,1.5-8.6,1.5L628,235.4v4.5l4.8,7.4l5.1,4l1.3,20.1l-1.2,22.1
		l-22.8-22.8l1.7-4.2l-4.5-5.5l-1.5-5.7l-3-4.5l-1.2-11.9l-7.9-6.4l-6.9,4.5v35l2.8,3l6.6,0.5l6.3-0.2c0,0,16,18.6,16.5,21.1
		l2.5,8.9l7.7,5.9l-0.3,12.9l5.8,15.9v6.5l3.6,5.4l-1.3,15.2l3.3,6.9l-0.7,9.4l-5.4,10.8l-1.8-15.2l1.8-4l0.7-13.7l-3.3,4.3
		l2.2-11.9l-5.1,2.9l-1.3,2l-4.9,7v5.2l3,8.9v7.8l-0.7,2.4l1.2,13.7l1,13.4l4.5,6.9l1.1,14.1L645,442.9z"/>
</g>
<g id="person2">
	<path id="XMLID_26_" class="st3" d="M687.8,432.1l-2,0.6l-9.9,6l-10.1-1.6l-25.6,5.1l-27.8-6.8l-12.8,9.6l-4.4-1.1l9.3-15.9
		l-5.4-5.2l4.3-2.9l7,6.8l27.2,3.8l17-5.5l-38.8-26.6l-6.8-11.4l-5.4-10.1l-1.3-12.9l7.4-44.4l-10.1,3.3l-8.1-3.7l-21.2-4.8
		l-3.2,3.3l-8.4,4l-4.5-4.4l-5.1-17.4l1-20.2l4.5-0.4l5.8,13.9l12,6.1c13,3.6,46-3.5,46-3.5l8.5,5.4l5.8,37.9l13.6-19.7l-7.5-10.7
		l1.2-12.6l-4.6-27.1l-3.5-4.8l-4.1-10.8l6.5-6.7l37.2-9.3l0.4,4.6l-14.8,10.3l-9.2,13.7c2.7,17.7,20,55.1,20,55.1l-20.9,46.4
		l-1.3,5.6l4.6,7.3l8.4,4.8l16.8,6.7l5.6-22.8l12.8-27.6l-3.8-9.4c0,0,0.2-0.9,1.4-0.7c1.1,0.2,6.3,2.6,6.3,2.6l2.4-15.5l2.9-0.6
		l0.8,14.2l-1.3,9.1l-3,4.4l-4.7,26.1l-1.3,23.5l3.7,5.7l22,0.2l12.1,17.4c0,0-2.1,27.8-24.8,26.5l-16.3-7.1L687.8,432.1z"/>
	<path id="XMLID_16_" class="st0" d="M693.5,430.2l-2,0.6l-9.9,6l-10.1-1.6l-25.6,5.1l-27.8-6.8l-12.8,9.6l-4.4-1.1l9.3-15.9
		l-5.4-5.2l4.3-2.9l7,6.8l27.2,3.8l17-5.5l-38.8-26.6l-6.8-11.4l-5.4-10.1l-1.3-12.9l7.4-44.4l-10.1,3.3l-8.1-3.7l-21.2-4.8L573,316
		l-8.4,4l-4.5-4.4l-5.1-17.4l1-20.2l4.5-0.4l5.8,13.9l12,6.1c13,3.6,46-3.5,46-3.5l8.5,5.4l5.8,37.9l13.6-19.7l-7.5-10.7l1.2-12.6
		l-4.6-27.1l-3.5-4.8l-4.1-10.8l6.5-6.7l37.2-9.3l0.4,4.6L663,250.5l-9.2,13.7c2.7,17.7,20,55.1,20,55.1l-20.9,46.4l-1.3,5.6
		l4.6,7.3l8.4,4.8l16.8,6.7l5.6-22.8l12.8-27.6l-3.8-9.4c0,0,0.2-0.9,1.4-0.7c1.1,0.2,6.3,2.6,6.3,2.6l2.4-15.5l2.9-0.6l0.8,14.2
		l-1.3,9.1l-3,4.4l-4.7,26.1l-1.3,23.5l3.7,5.7l22,0.2l12.1,17.4c0,0-2.1,27.8-24.8,26.5l-16.3-7L693.5,430.2z"/>
</g>
</svg>
