<?xml version="1.0" encoding="utf-8"?>
<!-- Generator: Adobe Illustrator 19.0.0, SVG Export Plug-In . SVG Version: 6.00 Build 0)  -->
<svg version="1.1" xmlns="http://www.w3.org/2000/svg" xmlns:xlink="http://www.w3.org/1999/xlink" x="0px" y="0px"
	 viewBox="0 0 1024 768" style="enable-background:new 0 0 1024 768;" xml:space="preserve">
<style type="text/css">
	.st0{stroke:#000000;stroke-width:4;stroke-miterlimit:10;}
	.st1{stroke:#FFFFFF;stroke-width:4;stroke-miterlimit:10;}
	.st2{fill:#EA1313;}
	.st3{fill:#32AD44;}
	.st4{fill:#9B1B1B;}
	.st5{fill:#AAAAAA;}
	.st6{fill:#226D27;}
	.st7{fill:#E5E5E5;}
	.st8{display:none;}
	.st9{display:inline;fill:#EA1313;}
	.st10{fill:none;}
	.st11{fill:#FFFFFF;}
	.st12{font-family:'Panther_V01';}
	.st13{font-size:85.809px;}
	.st14{opacity:0.83;fill:#727272;}
	.st15{opacity:0.83;}
	.st16{fill:#727272;}
	.st17{opacity:0.5;}
</style>
<g id="Background">
	<rect id="XMLID_4_" class="st0" width="1024" height="768"/>
</g>
<g id="Left_Arm">
	<path id="XMLID_252_" class="st1" d="M626.1,217.7c0,0,38.7,24.2,45.1,38.7c6.4,14.5,0,66.1,0,66.1c-29,50-25.8,109.6-25.8,109.6
		S452,322.5,442.3,312.8s6.4-41.9,6.4-41.9l-24.2-59.7L382.6,187l-19.3,21L323,196.7c0,0-59.7,85.5-50,108s79,70.9,79,70.9
		l30.6,11.3c106.4,120.9,327.3,230.6,327.3,230.6c79-54.8,124.1-267.6,124.1-267.6c51.6-85.5,0-174.1,0-174.1s-101.1-66-199.4-102.5
		l-70.2,125.3L626.1,217.7z"/>
</g>
<g id="Markings_L">
	<polygon id="XMLID_68_" class="st2" points="533.6,364.4 585.4,550 612,566.1 560.8,380 	"/>
	<path id="XMLID_67_" class="st2" d="M727.4,445.3l-82-9.6c17.7,4.3,42.9,12.6,69.7,29.6c33,21.1,54,46.2,65.7,62.7
		C760.5,502.3,747.7,471,727.4,445.3z"/>
	<path id="XMLID_66_" class="st2" d="M847.4,199.7c-92.2-22.2-163.2,55-163.2,55C746.9,150.4,835.9,174,835.9,174
		c2.1,3.8,4.3,8.3,6.4,12.9C844.3,191.4,846,195.7,847.4,199.7z"/>
	<path id="XMLID_65_" class="st3" d="M836.5,350.6C771,321.2,684.7,366,684.7,366c51.8-58.8,168.3-53,168.3-53
		c-1.8,6.1-3.7,13-7,20.4C843,339.9,839.6,345.6,836.5,350.6z"/>
	<polygon id="XMLID_64_" class="st4" points="547.5,372.4 560.8,380 612,566.1 597.6,557.4 	"/>
</g>
<g id="Right_Arm">
	<path id="XMLID_3_" class="st1" d="M411,217.7c0,0-38.7,24.2-45.1,38.7c-6.4,14.5,0,66.1,0,66.1c29,50,25.8,109.6,25.8,109.6
		s193.5-109.6,203.2-119.3s-6.4-41.9-6.4-41.9l24.2-59.7l41.9-24.2l19.3,21l40.3-11.3c0,0,59.7,85.5,50,108s-79,70.9-79,70.9
		L654.4,387C548,507.9,327.1,617.5,327.1,617.5C248.1,562.7,203,349.9,203,349.9c-51.6-85.5,0-174.1,0-174.1s101.1-66,199.4-102.5
		l70.2,125.3L411,217.7z"/>
</g>
<g id="Markings_R">
	<path id="XMLID_62_" class="st2" d="M591.5,312.4c0,0,47.2,9.9,62.4,78.8c-3,3.4-6.1,6.8-9.4,10.2c-2.1,2.2-4.2,4.3-6.2,6.4
		c-3.1-9.1-7.4-19.2-13.4-29.9c-9.4-16.9-28.1-39.4-49.8-54.9L591.5,312.4z"/>
	<polygon id="XMLID_61_" class="st2" points="503.5,366.8 451.4,551.5 424.7,566.7 476.4,382.5 	"/>
	<path id="XMLID_60_" class="st2" d="M189.6,199.7c92.2-22.2,163.2,55,163.2,55C290.1,150.4,201.2,174,201.2,174
		c-2.1,3.8-4.3,8.3-6.4,12.9C192.7,191.4,191,195.7,189.6,199.7z"/>
	<path id="XMLID_59_" class="st3" d="M200.7,350.8c65.5-29.4,152.1,15.2,152.1,15.2c-51.8-58.8-168.8-53-168.8-53
		c1.8,6.1,4.2,13,7.5,20.3C194.5,339.9,197.7,345.7,200.7,350.8z"/>
	<path id="XMLID_58_" class="st2" d="M310.6,445.3l82-9.6c-17.7,4.3-42.9,12.6-69.7,29.6c-33,21.1-54,46.2-65.7,62.7
		C277.6,502.3,290.3,471,310.6,445.3z"/>
	<path id="XMLID_57_" class="st2" d="M188.5,184.9"/>
</g>
<g id="Left_Fist">
	<path id="XMLID_273_" class="st1" d="M518.5,359.3l-79-48.1c0,0-5.5-16.7,9.2-40.3l-24.2-59.7L382.6,187l-19.3,21L323,196.7
		c0,0-56.3,77.4-50,108c0,0,19.8,29.9,79,70.9l30.6,11.3l31.4,32.4L518.5,359.3z"/>
	<path id="XMLID_274_" class="st2" d="M448.1,313.5c0,0-48.7,9.7-63.9,78.6c2.5,2.9,5.1,5.8,7.8,8.8c2.6,2.8,5.2,5.4,7.7,8
		c3.6-9.3,8.5-19.6,14.9-30.4c10.3-17.3,26.4-38.6,49.5-55.1L448.1,313.5z"/>
	<path id="XMLID_275_" class="st2" d="M386.3,399"/>
</g>
<g id="Shading">
	<path id="XMLID_7_" class="st5" d="M709.1,261.5c3.2-3.6,7.4-9.4,10.5-17.4c2.2-5.6,3.1-10.7,3.6-14.7l-7-10.6
		c2.3,2.7,4.5,11.9,4.5,11.9S720.2,241.5,709.1,261.5z"/>
	<path id="XMLID_10_" class="st5" d="M646.6,220.7l-5.3,13.5c0,0,14.8,10.5,31.6-25C672.9,209.2,639.4,251.7,646.6,220.7z"/>
	<path id="XMLID_45_" class="st4" d="M835.9,174c0,0-55.1-15.6-112.2,32.6l3.6,6.6c0,0,54.8-44.5,113-30.7"/>
	<path id="XMLID_44_" class="st6" d="M853,312.8c0,0-56.1-2.1-102.4,13.6l-10.6,9.3c0,0,71.8-17.4,107.5-5.9L853,312.8z"/>
	<polyline id="XMLID_43_" class="st4" points="645.4,435.7 722.9,452 781.7,527.9 728.4,445.1 	"/>
	<polygon id="XMLID_42_" class="st4" points="490.2,372.4 476.9,380 425.7,566.1 440,557.4 	"/>
	<path id="XMLID_41_" class="st4" d="M201,174.3c0,0,55.3-16.4,112.3,31.8l-3.9,6.4c0,0-54.7-43.3-112.9-29.6"/>
	<path id="XMLID_40_" class="st6" d="M184.1,313c10.8-0.3,22.5-0.1,35,0.8c27.1,2.1,50.7,7.1,70,13l8.7,8.9c0,0-71.9-17.4-107.7-5.8
		c-1.2-2.7-2.3-5.7-3.5-9C185.6,318.1,184.8,315.5,184.1,313z"/>
	<polyline id="XMLID_39_" class="st4" points="392.2,435.7 314.8,452 255.9,527.9 309.3,445.1 	"/>
	<path id="XMLID_38_" class="st4" d="M591.5,312.4c0,0,47.2,9.7,62.4,78.8l-6.7,7.4c0,0-4.3-51.5-61.8-82.2L591.5,312.4z"/>
	<path id="XMLID_37_" class="st4" d="M447,312.4c0,0-47.5,10.5-62.7,79.6l6.7,7.6c0,0,4.6-52.6,62.2-83.2L447,312.4z"/>
	<polyline id="XMLID_36_" class="st2" points="490.1,372.9 488.3,379.5 502.1,371.8 504.2,364.7 	"/>
	<path id="XMLID_8_" class="st5" d="M726.5,283.4c2.9-3.3,6.7-8.5,9.5-15.7c2-5.1,2.8-9.7,3.2-13.2l-6.4-9.6c2.1,2.4,4,10.7,4,10.7
		S736.5,265.3,726.5,283.4z"/>
	<path id="XMLID_9_" class="st5" d="M739.5,303.3c2.4-2.8,5.7-7.2,8-13.3c1.7-4.3,2.4-8.2,2.7-11.2l-5.4-8.1c1.8,2,3.4,9.1,3.4,9.1
		S747.9,288.1,739.5,303.3z"/>
	<path id="XMLID_13_" class="st5" d="M327.2,261.5c-3.2-3.6-7.4-9.4-10.5-17.4c-2.2-5.6-3.1-10.7-3.6-14.7l7-10.6
		c-2.3,2.7-4.5,11.9-4.5,11.9S316.1,241.5,327.2,261.5z"/>
	<path id="XMLID_12_" class="st5" d="M309.8,283.4c-2.9-3.3-6.7-8.5-9.5-15.7c-2-5.1-2.8-9.7-3.2-13.2l6.4-9.6
		c-2.1,2.4-4,10.7-4,10.7S299.8,265.3,309.8,283.4z"/>
	<path id="XMLID_11_" class="st5" d="M296.8,303.3c-2.4-2.8-5.7-7.2-8-13.3c-1.7-4.3-2.4-8.2-2.7-11.2l5.4-8.1
		c-1.8,2-3.4,9.1-3.4,9.1S288.3,288.1,296.8,303.3z"/>
	<path id="XMLID_1_" class="st5" d="M390.6,220.7l5.3,13.5c0,0-14.8,10.5-31.6-25C364.3,209.2,397.9,251.7,390.6,220.7z"/>
</g>
<g id="Necklace">
	<path id="XMLID_280_" class="st7" d="M359.9,87.9c0,0-0.7,83.1,100.5,83.8l6.3,11.1c0,0-102.2,6.7-126.5-85.9L359.9,87.9z"/>
	<path id="XMLID_281_" class="st3" d="M448.3,187.6l-1.5,17l-1.7-17.1l-1.5,17.1l-1.4-17.2l-1.3,17.2l-1.4-17.3l-1.3,17.3l-1-17.3
		c-0.7,4.8-2.2,17.3-2.2,17.3V184l6.3-1.4c1.6,0.3,1.7-2.2,1.7-2.2v-1.9l-1.5-1.3c-0.2,0.1,0.1-1.6-0.1-3.3c0,0,0.7,0,1-0.3
		l-0.1-1.6l1-0.8l1,0.6l1.1-0.5l1,0.6l1.3-0.2l0.6,0.8l0.6-0.3l0.2,1.1v4.3l-1.4,1.6l0.1,1.1c0,0-0.1,2,1.2,2.3l5.5,1.3l-0.2,20.7
		l-2.7-16.7l-1.2,16.7L448.3,187.6z"/>
	<path id="XMLID_282_" class="st2" d="M386.5,167.8l-10.7,13.3l8.1-15.2l-10.8,13.4l8.4-15.1l-10.7,13.6l8.4-15.2l-10.7,13.6l8.8-15
		c-3.3,3.6-11.4,13.2-11.4,13.2l11.5-17.1l6,2.3c1.2,1.1,2.5-1,2.5-1l1-1.6l-0.5-1.9c-0.2-0.1,1-1.3,1.8-2.8c0,0,0.6,0.4,1,0.3
		l0.8-1.3l1.3-0.1l0.5,1l1.2,0.2l0.5,1.1l1.2,0.6l0,1l1,0.3l-0.1,1.2l-2.4,3.6l-2.4,0.3l-0.7,0.8c0,0-1.2,1.5-0.4,2.5l3.8,4.1
		l-11.7,17.1l7.1-15.4l-10.3,13.2L386.5,167.8z"/>
	<path id="XMLID_283_" class="st3" d="M351.9,125.4l-15.8,6.6l14.4-9.4l-15.9,6.6l14.6-9.2l-15.9,6.8l14.6-9.3l-15.9,6.8l14.9-8.9
		c-4.6,1.6-16.3,6.1-16.3,6.1l18.3-9.5l4.1,4.9c0.5,1.6,2.7,0.4,2.7,0.4l1.7-0.9l0.5-1.9c-0.2-0.2,1.5-0.6,2.9-1.6
		c0,0,0.3,0.6,0.8,0.7l1.4-0.8l1.2,0.5l-0.1,1.1l0.9,0.8l-0.1,1.2l0.8,1l-0.5,0.9l0.7,0.8l-0.7,1l-3.8,2l-2.2-0.8l-1,0.4
		c0,0-1.8,0.7-1.5,2l1.4,5.4l-18.5,9.3l13.6-10.1l-15.4,6.7L351.9,125.4z"/>
	<path id="XMLID_287_" class="st7" d="M676.8,87.9c0,0,0.7,83.1-100.5,83.8l-6.3,11.1c0,0,102.2,6.7,126.5-85.9L676.8,87.9z"/>
	<path id="XMLID_286_" class="st3" d="M588.3,187.6l1.5,17l1.7-17.1l1.5,17.1l1.4-17.2l1.3,17.2l1.4-17.3l1.3,17.3l1.2-17.3
		c0.7,4.8,2.4,17.3,2.4,17.3V184l-6.8-1.4c-1.6,0.3-2.2-2.2-2.2-2.2v-1.9l1.9-1.3c0.2,0.1,0.1-1.6,0.2-3.3c0,0-0.6,0-0.9-0.3
		l0.1-1.6l-1-0.8l-1,0.6l-1.1-0.5l-1,0.6l-1.3-0.2l-0.6,0.8l-1-0.3l-0.5,1.1v4.3l1.7,1.6l0.1,1.1c0,0,0.2,2-1.1,2.3l-5.4,1.3
		l0.3,20.7l2.7-16.7l1.2,16.7L588.3,187.6z"/>
	<path id="XMLID_285_" class="st2" d="M650.2,167.8l10.7,13.3l-8.1-15.2l10.8,13.4l-8.4-15.1l10.7,13.6l-8.4-15.2l10.7,13.6l-8.8-15
		c3.3,3.6,11.4,13.2,11.4,13.2l-11.5-17.1l-6,2.3c-1.2,1.1-2.5-1-2.5-1l-1-1.6l0.5-1.9c0.2-0.1-1-1.3-1.8-2.8c0,0-0.6,0.4-1,0.3
		l-0.8-1.3l-1.3-0.1l-0.5,1l-1.2,0.2l-0.5,1.1l-1.2,0.6l0,1l-1,0.3l0.1,1.2l2.4,3.6l2.4,0.3l0.7,0.8c0,0,1.2,1.5,0.4,2.5l-3.8,4.1
		l11.7,17.1l-7.1-15.4l10.3,13.2L650.2,167.8z"/>
	<path id="XMLID_284_" class="st3" d="M684.8,125.4l15.8,6.6l-14.4-9.4l15.9,6.6l-14.6-9.2l15.9,6.8l-14.6-9.3l15.9,6.8l-14.9-8.9
		c4.6,1.6,16.3,6.1,16.3,6.1l-18.3-9.5l-4.1,4.9c-0.5,1.6-2.7,0.4-2.7,0.4l-1.7-0.9l-0.5-1.9c0.2-0.2-1.5-0.6-2.9-1.6
		c0,0-0.3,0.6-0.8,0.7l-1.4-0.8l-1.2,0.5l0.1,1.1l-0.9,0.8l0.1,1.2l-0.8,1l0.5,0.9l-0.7,0.8l0.7,1l3.8,2l2.2-0.8l1,0.4
		c0,0,1.8,0.7,1.5,2l-1.4,5.4l18.5,9.3l-13.6-10.1l15.4,6.7L684.8,125.4z"/>
</g>
<g id="Symbol" class="st8">
	<polyline id="XMLID_27_" class="st9" points="519.6,345.4 453.6,299.9 465.3,268.1 442.1,219.4 481,264.2 481,295.5 504.9,312.6 
		519.8,262.7 	"/>
	<polyline id="XMLID_26_" class="st9" points="519.4,345.4 585.4,299.9 573.8,268.1 596.9,219.4 558,264.2 558,295.5 534.2,312.6 
		519.2,262.7 	"/>
</g>
<g id="Text">
	<rect id="XMLID_279_" x="118.3" y="625.9" class="st10" width="818.9" height="175.7"/>
	<text id="XMLID_278_" transform="matrix(1 0 0 1 118.3246 694.5913)" class="st11 st12 st13">Black Forever</text>
</g>
<g id="Watermark">
	<path id="XMLID_16_" class="st14" d="M998.3,716c-30.3,10-14,33-14,33c-10.6-25.6,13.9-27.5,13.9-27.5s6.3-0.5,6.2-11.2
		C1004.4,710.3,1004.2,714,998.3,716z"/>
	<path id="XMLID_15_" class="st14" d="M998,760.2c30.3-10,14-33,14-33c10.6,25.6-13.9,27.5-13.9,27.5s-6.3,0.5-6.2,11.2
		C991.9,765.9,992.1,762.1,998,760.2z"/>
	<g id="XMLID_18_" class="st15">
		<path id="XMLID_14_" class="st16" d="M986,743.9v-11.5c0,0-0.2-0.1-0.2-0.1c-0.8,1.8-1.4,3.8-1.4,5.9c0,2.1,0.6,4.1,1.4,5.9
			C985.9,743.9,986,743.9,986,743.9z"/>
		<path id="XMLID_6_" class="st16" d="M1010.8,731.6c-0.1,0.2,0.2,0.4,0.2,0.7v11.5c0,0.2-0.2,0.5-0.2,0.7c1-1.9,1.6-4.1,1.6-6.5
			C1012.4,735.7,1011.8,733.6,1010.8,731.6z"/>
		<path id="XMLID_5_" class="st16" d="M1007.4,746c0.2,0,0.4-0.3,0.6-0.5c0.2-0.1,0-0.4,0.1-0.6c0.1-0.3-0.1-0.7-0.1-1v-5.1
			c0,0.2,0.1,0.1,0,0.2c-0.2,0.1-0.1,0-0.4,0h-6.3c-0.3,0-0.6,0.3-0.8,0.5c-0.1,0.1-0.2,0.3-0.3,0.4c0,0.1-0.2,0.3-0.2,0.4v3.6
			c0,0.7,0.3,1.3,0.7,1.7c0.2,0.2,0.5,0.5,0.7,0.5h-2.8h-1.6h-2.3c0.2,0,0.3-0.3,0.3-0.4c0.1-0.3,0-0.9-0.3-1.7
			c-1.7-3.5-2.9-5.3-3.6-5.3c-0.4,0-0.7,0.6-1,0.8c-0.4,0.3-0.5-0.4-0.5,1.6h0l0-0.5c0,0,0-0.3,0-0.3c-0.4-0.4-0.5-1-0.5-1.5
			c0-0.5,0.3-1,0.8-1.3c1.6-0.7,2.9-2,3.8-3.6c0.8-1.3,1.1-2.5,1.1-3.1c0-0.3-0.1-0.8-0.2-0.8h2.3h1.6h2.8c-0.2,0-0.5,0.4-0.7,0.6
			c-0.4,0.3-0.7,1.1-0.7,1.8v5.9c0-0.1,0.1-0.2,0.2-0.2c0.1-0.1,0.2,0.1,0.2,0c0.2-0.2,0.5,0,0.8,0h6.3c0.3,0,0.2-0.3,0.4-0.5
			c0.1-0.1,0-0.6,0-0.8v-4.3c0-0.7,0.1-1.4-0.3-1.8c-0.2-0.2-0.1-0.6-0.3-0.6h2.6c-2.5-3-6.8-6.4-11.7-6.4c-4.9,0-9.2,3.4-11.7,6.4
			h2.2c-0.2,0-0.2,0.4-0.4,0.6c-0.4,0.3-0.4,1.1-0.4,1.8v11.5c0,0.7-0.1,1.3,0.4,1.7c0.2,0.2,0.2,0.5,0.4,0.5h-2.1
			c2.5,4,6.8,6.3,11.6,6.3c4.9,0,9.1-2.3,11.6-6.3H1007.4z"/>
		<path id="XMLID_17_" class="st16" d="M998,731.1c-0.3,0.3-0.7,0.8-1.1,1.4c-1.5,2.3-2.8,4-3.9,5.1c1.2,1.4,2,2.7,2.7,3.9
			c0.6,1.2,1,2,1.2,2.3c0.3,0.6,0.5,1.1,0.8,1.4c0.3-0.3,0.3-0.8,0.3-1.3v-11.5c0-0.4,0.1-0.7,0-0.9
			C997.9,731.3,998,731.2,998,731.1z"/>
	</g>
	<g id="XMLID_20_" class="st17">
		<path id="XMLID_21_" class="st11" d="M457,524.6c0.1,0,0.2,0,0.2,0c0,0,0,0,0.1,0c0.1,0,0.2,0.1,0.2,0.2c0,0,0,0.1,0,0.1
			c0,0,0,0.1,0,0.1c0,0.1,0,0.1-0.1,0.2c0,0-0.1,0.1-0.2,0.1c-0.7,0.3-1.7,0.6-3,1.2c0.1,0.2,0.2,0.6,0.4,1.1
			c0.4,0.1,0.9,0.3,1.6,0.5c0.1,0,0.2,0.1,0.2,0.2c0.1,0.1,0.1,0.2,0,0.3c0,0.1-0.1,0.2-0.2,0.2c-0.1,0.1-0.2,0.1-0.3,0
			c-1.5-0.4-3.9-1.1-7-2c-0.1,0-0.2-0.1-0.2-0.2c-0.1-0.1-0.1-0.2,0-0.3c0-0.1,0.1-0.2,0.2-0.2c0.1-0.1,0.2-0.1,0.3,0
			c0.6,0.2,1.5,0.4,2.7,0.8c-0.2-0.7-0.6-1.6-1.1-2.9c0-0.1,0-0.2,0-0.3c0-0.1,0.1-0.2,0.2-0.2c0.1,0,0.2,0,0.3,0
			c0.1,0,0.2,0.1,0.2,0.2c0.3,0.8,0.7,1.9,1.3,3.5c0.2,0,0.4,0.1,0.8,0.2c-0.3-0.8-0.7-1.9-1.3-3.5c0-0.1,0-0.2,0-0.3
			c0-0.1,0.1-0.2,0.2-0.2c0.1,0,0.2,0,0.3,0c0.1,0,0.2,0.1,0.2,0.2c0.2,0.5,0.5,1.2,0.8,2.2C454.7,525.6,455.7,525.2,457,524.6z"/>
		<path id="XMLID_23_" class="st11" d="M453.2,513.5c1.4,1,3.5,2.5,6.2,4.6c0.1,0,0.1,0.1,0.1,0.2c0,0.1,0,0.2,0,0.2
			c0,0.1-0.1,0.1-0.1,0.2c-0.1,0.1-0.1,0.1-0.2,0.1c-0.3,0-0.8,0.1-1.5,0.1c0.3,0.2,0.7,0.5,1.2,0.9c0.1,0,0.1,0.1,0.1,0.2
			c0,0.1,0,0.2,0,0.2c0,0.1-0.1,0.1-0.1,0.2c-0.1,0.1-0.1,0.1-0.2,0.1c-1.7,0.1-4.3,0.4-7.7,0.6c-0.1,0-0.1,0-0.1,0
			c-0.1,0-0.1,0-0.1-0.1c-0.1-0.1-0.1-0.2-0.1-0.3c0,0,0-0.1,0-0.1c0,0,0-0.1,0.1-0.1c0.1-0.1,0.2-0.1,0.3-0.1
			c1.5-0.1,3.7-0.3,6.6-0.6c-0.2-0.2-0.6-0.5-1.1-0.8c-1.1,0.1-2.8,0.2-5,0.4c-0.1,0-0.2,0-0.3-0.1c-0.1-0.1-0.1-0.2-0.1-0.3
			c0-0.1,0-0.2,0.1-0.3c0.1-0.1,0.2-0.1,0.3-0.1c1.5-0.1,3.7-0.3,6.6-0.6c-1.2-0.9-3-2.2-5.4-3.9c-0.1-0.1-0.1-0.2-0.2-0.3
			s0-0.2,0.1-0.3c0.1-0.1,0.2-0.2,0.3-0.2c0.1,0,0.1,0,0.2,0C453.1,513.5,453.1,513.5,453.2,513.5z"/>
		<path id="XMLID_25_" class="st11" d="M462.3,508.5c-0.3,1.2-0.8,2.9-1.5,5.2c0,0.1,0,0.1-0.1,0.2c0,0-0.1,0.1-0.2,0.1
			c-0.1,0-0.1,0-0.2,0c0,0,0,0,0,0c0,0-0.1,0-0.1-0.1c-1.4-1-3.4-2.6-6.2-4.6c-0.1,0-0.1-0.1-0.1-0.2c0-0.1,0-0.2,0-0.2
			c0-0.1,0.1-0.2,0.1-0.2c0.1,0,0.1-0.1,0.2-0.1c1.7-0.1,4.3-0.4,7.7-0.6c0,0,0.1,0,0.1,0c0,0,0,0,0,0c0.1,0,0.1,0.1,0.2,0.1
			c0,0.1,0.1,0.1,0.1,0.2C462.4,508.3,462.3,508.4,462.3,508.5z M460.2,512.9c0.3-0.9,0.7-2.3,1.2-4.1c-1.3,0.1-3.4,0.3-6.1,0.5
			C456.4,510.1,458,511.3,460.2,512.9z"/>
		<path id="XMLID_30_" class="st11" d="M457.2,498.6c1.6,0.4,3.9,1.1,7,2c0.1,0,0.2,0.1,0.2,0.1c0.1,0.1,0.1,0.1,0.1,0.2
			c0,0,0,0,0,0.1c0,0,0,0,0,0.1c0,0.1,0,0.1-0.1,0.2c0,0-0.1,0.1-0.2,0.1c-1.6,0.6-4.1,1.6-7.3,2.8c0.9,0.3,2.3,0.7,4.2,1.2
			c0.1-0.5,0.4-1.2,0.6-2.2c0-0.1,0.1-0.2,0.2-0.2c0.1-0.1,0.2-0.1,0.3,0c0.1,0,0.2,0.1,0.2,0.2c0.1,0.1,0.1,0.2,0,0.3
			c-0.2,0.6-0.4,1.5-0.7,2.6c0,0.1-0.1,0.2-0.2,0.2c-0.1,0.1-0.2,0.1-0.3,0c-1.3-0.4-3.2-0.9-5.7-1.6c-0.1,0-0.2-0.1-0.2-0.1
			c-0.1-0.1-0.1-0.1-0.1-0.2c0-0.1,0-0.2,0.1-0.2c0-0.1,0.1-0.1,0.2-0.1c1.6-0.6,4.1-1.6,7.3-2.8c-1.3-0.4-3.2-0.9-5.8-1.6
			c-0.1,0-0.2-0.1-0.2-0.2c-0.1-0.1-0.1-0.2,0-0.3c0-0.1,0.1-0.2,0.2-0.2C457,498.5,457.1,498.5,457.2,498.6z M463.7,502.3
			c0.1,0,0.2,0.1,0.2,0.2c0.1,0.1,0.1,0.2,0,0.3c-0.2,0.8-0.5,1.9-1,3.5c0,0.1-0.1,0.2-0.2,0.2c-0.1,0.1-0.2,0.1-0.3,0
			c-0.1,0-0.2-0.1-0.2-0.2c-0.1-0.1-0.1-0.2,0-0.3c0.2-0.8,0.5-1.9,1-3.5c0-0.1,0.1-0.2,0.2-0.2
			C463.5,502.3,463.6,502.3,463.7,502.3z"/>
		<path id="XMLID_33_" class="st11" d="M465.9,496.2c0,0.1-0.1,0.1-0.1,0.2c-0.1,0.1-0.1,0.1-0.2,0.1c-0.1,0-0.1,0-0.2,0
			c0,0-0.1,0-0.1-0.1c-0.1-0.1-0.2-0.2-0.2-0.3c0-0.1-0.1-0.3-0.1-0.4c0-0.1-0.1-0.3-0.1-0.4c-0.1-0.3-0.2-0.5-0.3-0.7
			c-0.1-0.2-0.3-0.3-0.4-0.4c-0.2,0-0.4,0-0.8,0.1c-0.3,0.1-0.7,0.2-1,0.3c-0.4,0.1-0.8,0.3-1.2,0.4c-0.4,0.1-0.7,0.1-1,0
			c-0.3-0.1-0.5-0.2-0.7-0.5c-0.2-0.2-0.4-0.6-0.6-1c-0.1-0.3-0.2-0.5-0.2-0.7c-0.1-0.2-0.1-0.3-0.1-0.4c0-0.1,0-0.1,0-0.2
			c0,0,0-0.1,0.1-0.1c0.1-0.1,0.2-0.1,0.3-0.2c0.1,0,0.1,0,0.2,0c0,0,0.1,0,0.1,0.1c0.1,0.1,0.1,0.1,0.2,0.3c0,0.2,0.1,0.5,0.2,0.8
			c0.1,0.3,0.2,0.5,0.3,0.7c0.1,0.1,0.1,0.2,0.2,0.3c0.1,0.1,0.1,0.1,0.2,0.2c0.2,0,0.4,0,0.8-0.1c0.3-0.1,0.7-0.2,1-0.3
			c0.4-0.1,0.8-0.3,1.2-0.4c0.4-0.1,0.7-0.1,1,0c0.2,0.1,0.5,0.2,0.7,0.5c0.2,0.2,0.4,0.6,0.6,1c0.1,0.3,0.2,0.5,0.2,0.7
			c0.1,0.2,0.1,0.3,0.1,0.3C465.9,496,465.9,496.1,465.9,496.2C465.9,496.1,465.9,496.2,465.9,496.2z"/>
		<path id="XMLID_35_" class="st11" d="M466.9,491.8c0,0,0,0.1,0.1,0.2c0,0.1,0,0.1,0,0.2c0,0.1,0,0.1-0.1,0.2c0,0-0.1,0.1-0.1,0.1
			c0,0-0.1,0-0.2,0.1c-0.1,0-0.1,0-0.2,0c-0.1,0-0.1,0-0.2-0.1c0,0-0.1-0.1-0.1-0.1c0,0,0-0.1-0.1-0.2c0-0.1,0-0.1,0-0.2
			c0-0.1,0-0.1,0.1-0.2c0,0,0.1-0.1,0.1-0.1c0,0,0.1,0,0.2-0.1c0.1,0,0.1,0,0.2,0c0.1,0,0.1,0,0.2,0.1
			C466.8,491.7,466.9,491.8,466.9,491.8z"/>
		<path id="XMLID_47_" class="st11" d="M461.7,482.5c1.6,0.4,3.9,1.1,7,2c0.1,0,0.2,0.1,0.2,0.2c0.1,0.1,0.1,0.2,0,0.3
			c0,0.1-0.1,0.2-0.2,0.2c-0.1,0.1-0.2,0.1-0.3,0c-0.5-0.1-1.2-0.3-2.2-0.6c-0.3,1-0.7,2.5-1.3,4.5c0.5,0.1,1.2,0.3,2.2,0.6
			c0.1,0,0.2,0.1,0.2,0.2c0.1,0.1,0.1,0.2,0,0.3c0,0.1-0.1,0.2-0.2,0.2c-0.1,0.1-0.2,0.1-0.3,0c-1.5-0.4-3.9-1.1-7-2
			c-0.1,0-0.2-0.1-0.2-0.2c-0.1-0.1-0.1-0.2,0-0.3c0-0.1,0.1-0.2,0.2-0.2c0.1-0.1,0.2-0.1,0.3,0c0.5,0.1,1.2,0.4,2.2,0.6
			c0.3-1,0.7-2.5,1.3-4.5c-0.5-0.1-1.2-0.4-2.2-0.6c-0.1,0-0.2-0.1-0.2-0.2c-0.1-0.1-0.1-0.2,0-0.3c0-0.1,0.1-0.2,0.2-0.2
			C461.5,482.5,461.6,482.5,461.7,482.5z M465.5,484.4c-0.2-0.1-0.5-0.2-1-0.3c-0.3,1-0.7,2.5-1.3,4.5c0.2,0.1,0.5,0.2,1,0.3
			C464.5,487.9,464.9,486.4,465.5,484.4z"/>
		<path id="XMLID_50_" class="st11" d="M470.6,479.3c-0.1,0.4-0.3,0.7-0.5,1c-0.2,0.3-0.4,0.6-0.7,0.8c-0.5,0.5-1.1,0.8-1.8,0.9
			c-0.7,0.2-1.4,0.2-2.1,0c-0.4-0.1-0.7-0.3-1-0.5c-0.3-0.2-0.6-0.4-0.8-0.7c-0.5-0.5-0.8-1.1-0.9-1.8c-0.2-0.7-0.2-1.4,0-2.1
			c0.2-0.7,0.5-1.3,1-1.8c0.5-0.5,1.1-0.8,1.7-1c0.3-0.1,0.7-0.2,1.1-0.2c0.4,0,0.7,0,1.1,0.2c0.4,0.1,0.7,0.3,1,0.5
			c0.3,0.2,0.6,0.4,0.8,0.7c0.5,0.5,0.8,1.1,0.9,1.8C470.8,477.9,470.8,478.6,470.6,479.3z M463.6,477.3c-0.1,0.3-0.1,0.6-0.1,0.9
			c0,0.3,0,0.6,0.1,0.9c0.2,0.5,0.4,1,0.8,1.4c0.4,0.4,0.9,0.7,1.4,0.8c0.6,0.2,1.1,0.2,1.6,0c0.5-0.1,1-0.4,1.4-0.8
			c0.2-0.2,0.4-0.4,0.6-0.7c0.2-0.3,0.3-0.5,0.4-0.8c0.2-0.6,0.2-1.1,0-1.6c-0.1-0.5-0.4-1-0.8-1.4c-0.2-0.2-0.4-0.4-0.7-0.6
			c-0.3-0.2-0.5-0.3-0.8-0.4c-0.3-0.1-0.6-0.1-0.9-0.1c-0.3,0-0.6,0-0.9,0.1c-0.5,0.1-1,0.4-1.4,0.8
			C464,476.3,463.8,476.7,463.6,477.3z"/>
		<path id="XMLID_53_" class="st11" d="M473.4,469.2c-0.3,1-0.7,2.4-1.2,4.4c0,0.1-0.1,0.2-0.2,0.2c-0.1,0.1-0.2,0.1-0.3,0
			c-1.5-0.4-3.9-1.1-7-2c-0.1,0-0.2-0.1-0.2-0.2c-0.1-0.1-0.1-0.2,0-0.3c0-0.1,0.1-0.2,0.2-0.2c0.1-0.1,0.2-0.1,0.3,0
			c1.5,0.4,3.7,1,6.6,1.9c0.2-0.9,0.6-2.2,1.1-4c0-0.1,0.1-0.2,0.2-0.2c0.1-0.1,0.2-0.1,0.3,0c0.1,0,0.2,0.1,0.2,0.2
			C473.4,469,473.5,469.1,473.4,469.2z"/>
		<path id="XMLID_55_" class="st11" d="M475.3,462.6c-0.3,1-0.7,2.4-1.2,4.4c0,0.1-0.1,0.2-0.2,0.2c-0.1,0.1-0.2,0.1-0.3,0
			c-1.5-0.4-3.9-1.1-7-2c-0.1,0-0.2-0.1-0.2-0.2c-0.1-0.1-0.1-0.2,0-0.3c0-0.1,0.1-0.2,0.2-0.2c0.1-0.1,0.2-0.1,0.3,0
			c1.5,0.4,3.7,1,6.6,1.9c0.2-0.9,0.6-2.2,1.1-4c0-0.1,0.1-0.2,0.2-0.2c0.1-0.1,0.2-0.1,0.3,0c0.1,0,0.2,0.1,0.2,0.2
			C475.3,462.4,475.3,462.5,475.3,462.6z"/>
		<path id="XMLID_63_" class="st11" d="M476.9,456.9c-0.1,0.4-0.3,0.7-0.5,1c-0.2,0.3-0.4,0.6-0.7,0.8c-0.5,0.5-1.1,0.8-1.8,0.9
			c-0.7,0.2-1.4,0.2-2.1,0c-0.4-0.1-0.7-0.3-1-0.5c-0.3-0.2-0.6-0.4-0.8-0.7c-0.5-0.5-0.8-1.1-0.9-1.8c-0.2-0.7-0.2-1.4,0-2.1
			c0.2-0.7,0.5-1.3,1-1.8c0.5-0.5,1.1-0.8,1.7-1c0.3-0.1,0.7-0.2,1.1-0.2c0.4,0,0.7,0,1.1,0.2c0.4,0.1,0.7,0.3,1,0.5
			c0.3,0.2,0.6,0.4,0.8,0.7c0.5,0.5,0.8,1.1,0.9,1.8C477.1,455.5,477.1,456.2,476.9,456.9z M469.9,454.9c-0.1,0.3-0.1,0.6-0.1,0.9
			c0,0.3,0,0.6,0.1,0.9c0.2,0.5,0.4,1,0.8,1.4c0.4,0.4,0.9,0.7,1.4,0.8c0.6,0.2,1.1,0.2,1.6,0c0.5-0.1,1-0.4,1.4-0.8
			c0.2-0.2,0.4-0.4,0.6-0.7c0.2-0.3,0.3-0.5,0.4-0.8c0.2-0.6,0.2-1.1,0-1.6c-0.1-0.5-0.4-1-0.8-1.4c-0.2-0.2-0.4-0.4-0.7-0.6
			c-0.3-0.2-0.5-0.3-0.8-0.4s-0.6-0.1-0.9-0.1c-0.3,0-0.6,0-0.9,0.1c-0.5,0.1-1,0.4-1.4,0.8C470.4,453.9,470.1,454.3,469.9,454.9z"
			/>
		<path id="XMLID_71_" class="st11" d="M473.4,441.8c1.4,1,3.5,2.5,6.2,4.6c0.1,0,0.1,0.1,0.1,0.2c0,0.1,0,0.2,0,0.2
			c0,0.1-0.1,0.1-0.1,0.2c-0.1,0.1-0.1,0.1-0.2,0.1c-0.3,0-0.8,0.1-1.5,0.1c0.3,0.2,0.7,0.5,1.2,0.9c0.1,0,0.1,0.1,0.1,0.2
			c0,0.1,0,0.2,0,0.2c0,0.1-0.1,0.1-0.1,0.2c-0.1,0.1-0.1,0.1-0.2,0.1c-1.7,0.1-4.3,0.4-7.7,0.6c-0.1,0-0.1,0-0.1,0
			c-0.1,0-0.1,0-0.1-0.1c-0.1-0.1-0.1-0.2-0.1-0.3c0,0,0-0.1,0-0.1c0,0,0-0.1,0.1-0.1c0.1-0.1,0.2-0.1,0.3-0.1
			c1.5-0.1,3.7-0.3,6.6-0.6c-0.2-0.2-0.6-0.5-1.1-0.8c-1.1,0.1-2.8,0.2-5,0.4c-0.1,0-0.2,0-0.3-0.1c-0.1-0.1-0.1-0.2-0.1-0.3
			c0-0.1,0-0.2,0.1-0.3c0.1-0.1,0.2-0.1,0.3-0.1c1.5-0.1,3.7-0.3,6.6-0.6c-1.2-0.9-3-2.2-5.4-3.9c-0.1-0.1-0.1-0.2-0.2-0.3
			s0-0.2,0.1-0.3c0.1-0.1,0.2-0.2,0.3-0.2c0.1,0,0.1,0,0.2,0S473.4,441.8,473.4,441.8z"/>
		<path id="XMLID_73_" class="st11" d="M482.6,436.7c-0.3,1.2-0.8,2.9-1.5,5.2c0,0.1,0,0.1-0.1,0.2c0,0-0.1,0.1-0.2,0.1
			c-0.1,0-0.1,0-0.2,0c0,0,0,0,0,0c0,0-0.1,0-0.1-0.1c-1.4-1-3.4-2.6-6.2-4.6c-0.1,0-0.1-0.1-0.1-0.2c0-0.1,0-0.2,0-0.2
			c0-0.1,0.1-0.2,0.1-0.2c0.1,0,0.1-0.1,0.2-0.1c1.7-0.1,4.3-0.4,7.7-0.6c0,0,0.1,0,0.1,0c0,0,0,0,0,0c0.1,0,0.1,0.1,0.2,0.1
			c0,0.1,0.1,0.1,0.1,0.2C482.6,436.6,482.6,436.6,482.6,436.7z M480.5,441.2c0.3-0.9,0.7-2.3,1.2-4.1c-1.3,0.1-3.4,0.3-6.1,0.5
			C476.7,438.3,478.3,439.5,480.5,441.2z"/>
		<path id="XMLID_76_" class="st11" d="M477.7,426.9c0.6,0.8,1.5,1.9,2.7,3.5c0.8,0.2,1.9,0.5,3.4,1c0.1,0,0.2,0.1,0.2,0.2
			c0.1,0.1,0.1,0.2,0,0.3c0,0.1-0.1,0.2-0.2,0.2c-0.1,0.1-0.2,0.1-0.3,0c-0.8-0.2-1.9-0.5-3.4-1c-0.9,0.4-2.3,0.9-4.1,1.6
			c-0.1,0-0.2,0-0.3,0c0,0,0,0-0.1,0c-0.1,0-0.2-0.1-0.2-0.2c0-0.1,0-0.2,0-0.3c0,0,0,0,0-0.1c0-0.1,0.1-0.2,0.2-0.2
			c0.5-0.2,1.3-0.5,2.3-0.9c-0.3-0.4-0.8-1.1-1.5-2c-0.1-0.1-0.1-0.2-0.1-0.3c0-0.1,0.1-0.2,0.2-0.3c0.1-0.1,0.2-0.1,0.3-0.1
			c0.1,0,0.2,0.1,0.3,0.1c0.4,0.5,0.9,1.2,1.6,2.2c0.1,0,0.3-0.1,0.6-0.2c-0.5-0.7-1.3-1.8-2.4-3.2c-0.1-0.1-0.1-0.2-0.1-0.3
			c0-0.1,0.1-0.2,0.2-0.3c0.1-0.1,0.2-0.1,0.3-0.1c0,0,0,0,0.1,0C477.6,426.8,477.7,426.9,477.7,426.9z"/>
	</g>
</g>
</svg>
