<?xml version="1.0" encoding="utf-8"?>
<!-- Generator: Adobe Illustrator 19.0.0, SVG Export Plug-In . SVG Version: 6.00 Build 0)  -->
<svg version="1.1" id="Layer_1" xmlns="http://www.w3.org/2000/svg" xmlns:xlink="http://www.w3.org/1999/xlink" x="0px" y="0px"
	 viewBox="-579 237 560 878" style="enable-background:new -579 237 560 878;" xml:space="preserve">
<style type="text/css">
	.st0{display:none;}
	.st1{display:inline;fill:#303030;stroke:#000000;stroke-miterlimit:10;}
	.st2{fill:none;stroke:#FFFFFF;stroke-width:10;stroke-miterlimit:10;}
	.st3{display:inline;fill:#992020;}
	.st4{display:inline;}
	.st5{display:inline;fill:#A01313;}
	.st6{fill:#992020;}
</style>
<g id="Background" class="st0">
	<rect x="-1049" y="76" class="st1" width="1500" height="1200"/>
</g>
<g id="Stroke_Logo">
	<path id="wingTop" class="st2" d="M-295.9,341.6c-452.8,149-209.7,493.2-209.7,493.2c-158.2-382,207.1-410.6,207.1-410.6
		s94.8-8.1,92.6-167.7C-205.9,256.4-208.8,312.9-295.9,341.6z"/>
	<path id="wingLow" class="st2" d="M-301.7,1002.7C151.1,853.7-92,509.4-92,509.4C66.2,891.4-299.1,920-299.1,920
		s-94.8,8.1-92.6,167.7C-391.7,1087.8-388.8,1031.3-301.7,1002.7z"/>
	<g id="letters">
		<path class="st2" d="M-494.5,758.5V586.2c0-0.6,4.5-1.2,4.5-1.8c-12.4,26.6-17,56.2-17,87.4c0,31.3,3.5,60.9,15.9,87.5
			C-491.1,759.1-494.5,758.8-494.5,758.5z"/>
		<path class="st2" d="M-118.3,575.8c-1,3.1-6.2,6.6-6.2,10.5v172.3c0,3.6,5.1,6.9,6,9.8c15.2-28.8,23.8-61.7,23.8-96.5
			C-94.7,637.2-103.2,604.5-118.3,575.8z"/>
		<path class="st2" d="M-161.2,794.5c3.2,0,6.4-6.7,9.7-9.2c2.9-2.1,0.3-7.1,1.8-10.3c2-4-1.8-11-1.8-16.4v-76.8
			c-1,2.3,1.8,8.9-0.4,10.3c-2.9,1.8-1.5,7.5-5.6,7.5H-252c-4.8,0-8.8-3-11.9,0.6c-1.1,1.5-7.1,0.8-8,2.6c-0.6,1.5-5.6,0.7-6.6,2.5
			v53.3c0,9.9,8.1,21.9,14.5,26.8c3.2,2.5,11.4,9.2,14.6,9.2h-41.3h-24h-33.9c2.3,0,4-6.2,5.1-8.7c2.2-4.8,0.5-15.1-5.1-26.4
			c-25.2-52.2-43.1-79.5-53.5-79.5c-5.6,0-10.4,5.9-14.2,9.1c-5.4,4.4-7.8,13.4-7,20.4h-0.1l-0.1-5c-0.2-0.1-0.3-2.5-0.3-2.4
			c-5.3-6.1-7.7-14.2-7-21.9c0.6-8.2,4.7-14.7,12.2-18.3c23.6-11.1,42.7-29.1,57.2-53.2c11.3-18.9,16.9-27.8,16.7-36.5
			c-0.1-4.3-1.3-2.6-3.7-2.6h33.9h24h41.3c-3.2,0-11.4-2.9-14.6-0.4c-6.4,5-14.5,7.4-14.5,17.1v87.5c1-1.2,5.9-2.3,6.6-3.3
			c0.8-1.3,4.3,2.2,5.5,1.2c3-2.5,9.5,0.9,14.4,0.9h94.5c4.1,0,2.7-6,5.6-8.7c2.2-2-0.6-9.4,0.4-12.7v-64.9c0-9.8,1.6-12.2-4.9-17.1
			c-3.2-2.5-1.6,0.4-4.9,0.4h38.1c-36.9-58-101.2-95.1-174.4-95.1s-137.5,37.1-174.4,95.1h32.4c-3.2,0-11.4-2.9-14.6-0.4
			c-6.4,5-14.5,7.4-14.5,17.1v172.3c0,9.9,8.1,21.9,14.5,26.8c3.2,2.5,11.4,9.2,14.6,9.2H-471c37,57,101,94,173.7,94
			s136.6-37,173.7-94L-161.2,794.5L-161.2,794.5z"/>
		<path class="st2" d="M-301.6,567.5c-4.7,4.8-10.1,11.6-16.2,20.4c-22.7,34.3-41.9,59.4-57.8,75.4c17.2,20.7,30.5,40.4,39.9,58.9
			c9.3,18.6,15.3,30.2,17.9,34.9c4.9,9,5.6,16,10.9,21c4.6-4.8,2.4-11.3,2.4-19.6V586.2c0-5.3,3.5-10,1.5-14.1
			C-303.9,570.5-300.4,568.9-301.6,567.5z"/>
	</g>
</g>
<g id="Wings" class="st0">
	<path class="st3" d="M-295.9,344.6c-452.8,149-209.7,493.2-209.7,493.2c-158.2-382,207.1-410.6,207.1-410.6s94.8-8.1,92.6-167.7
		C-205.9,259.4-208.8,315.9-295.9,344.6z"/>
	<path class="st3" d="M-301.7,1005.7C151.1,856.7-92,512.4-92,512.4C66.2,894.4-299.1,923-299.1,923s-94.8,8.1-92.6,167.7
		C-391.7,1090.8-388.8,1034.3-301.7,1005.7z"/>
</g>
<g id="OuterCircle" class="st0">
	<circle class="st4" cx="-297.4" cy="611.8" r="207.4"/>
</g>
<g id="InnerCircle" class="st0">
	<circle class="st5" cx="-296.9" cy="612.3" r="171.4"/>
</g>
<g id="Let2" class="st0">
</g>
<g id="Letters" class="st0">
	<g class="st4">
		<path class="st6" d="M-485,761.5V589.2c0-0.6-0.2-1.2-0.2-1.8c-12.4,26.6-19.4,56.2-19.4,87.4c0,31.3,7.1,60.9,19.5,87.5
			C-485.2,762.1-485,761.8-485,761.5z"/>
		<path class="st6" d="M-113.5,578.8c-1,3.1-1.5,6.6-1.5,10.5v172.3c0,3.6,0.4,6.9,1.2,9.8c15.2-28.8,23.8-61.7,23.8-96.5
			C-90,640.2-98.5,607.5-113.5,578.8z"/>
		<path class="st6" d="M-161.2,788c3.2,0,6.4-2,9.7-4.5c2.9-2.1,5-4.7,6.6-8c2-4,3-8.6,3-14v-76.8c-1,2.3-3,4.1-5.2,5.5
			c-2.9,1.8-6.3,2.8-10.3,2.8H-252c-4.8,0-8.8,1.8-11.9,5.4c-1.1,1.5-2.3,3.1-3.2,5c-0.6,1.5-0.9,3.1-1.9,4.8v53.3
			c0,9.9,3.4,17.1,9.7,22c3.2,2.5,6.6,4.5,9.9,4.5h-41.3h-24h-33.9c2.3,0,4-1.4,5.1-3.9c2.2-4.8,0.5-12.8-5.1-24
			c-25.2-52.2-43.1-78.3-53.5-78.3c-5.6,0-10.4,1.7-14.2,4.9c-5.4,4.4-7.8,9.3-7,16.3h-0.1l-0.1-0.2c-0.2-0.1-0.3-0.1-0.3,0
			c-5.3-6.1-7.7-13-7-20.8c0.6-8.2,4.7-14.1,12.2-17.7c23.6-11.1,42.7-28.8,57.2-52.9c11.3-18.9,16.9-32.4,16.7-41.1
			c-0.1-4.3-1.3-7.2-3.7-7.2h33.9h24h41.3c-3.2,0-6.7,1.9-9.9,4.3c-6.4,5-9.7,12.1-9.7,21.9v87.5c1-1.2,1.1-2.3,1.9-3.3
			c0.8-1.3,1.9-2.5,3.1-3.6c3-2.5,7.1-3.8,12-3.8h94.5c4.1,0,7.4-1.2,10.3-3.9c2.2-2,4.2-4.6,5.2-7.9v-64.9c0-9.8-3.2-16.9-9.6-21.9
			c-3.2-2.5-6.4-4.3-9.6-4.3h38c-36.9-58-101.2-95.1-174.4-95.1S-434.8,505-471.7,563h32.4c-3.2,0-6.7,1.9-9.9,4.3
			c-6.4,5-9.7,12.1-9.7,21.9v172.3c0,9.9,3.4,17.1,9.7,22c3.2,2.5,6.6,4.5,9.9,4.5H-471c37,57,101,94,173.7,94s136.6-37,173.7-94
			H-161.2z"/>
		<path class="st6" d="M-301.6,570.5c-4.7,4.8-10.1,11.6-16.2,20.4c-22.7,34.3-41.9,59.4-57.8,75.4c17.2,20.7,30.5,40.4,39.9,58.9
			c9.3,18.6,15.3,30.2,17.9,34.9c4.9,9,10.3,16,15.7,21c4.6-4.8,7.1-11.3,7.1-19.6V589.2c0-5.3-1.2-10-3.2-14.1
			C-299.1,573.5-300.4,571.9-301.6,570.5z"/>
	</g>
</g>
</svg>
