<?xml version="1.0" encoding="utf-8"?>
<!-- Generator: Adobe Illustrator 19.0.0, SVG Export Plug-In . SVG Version: 6.00 Build 0)  -->
<svg version="1.1" id="Layer_1" xmlns="http://www.w3.org/2000/svg" xmlns:xlink="http://www.w3.org/1999/xlink" x="0px" y="0px"
	 viewBox="0 0 60 60" style="enable-background:new 0 0 60 60;" xml:space="preserve">
<style type="text/css">
	.st0{fill:#BF773C;stroke:#000000;stroke-miterlimit:10;}
	.st1{fill:#D9E021;stroke:#000000;stroke-miterlimit:10;}
	.st2{fill:#282827;stroke:#000000;stroke-miterlimit:10;}
</style>
<circle class="st0" cx="30.3" cy="31.6" r="14"/>
<line class="st0" x1="33" y1="27.5" x2="41" y2="27.5"/>
<polygon class="st1" points="35.2,27.5 37,31 38.8,27.5 "/>
<polyline class="st0" points="33,26 38.8,23.5 40.3,25.3 "/>
<path class="st2" d="M30.7,17.7c0,0-0.1,1.1-0.2,3c-0.4,8.2-1.4,30.5,0,32.7c0.2,0.5-12.2-8.1-14.8-24.9c0,0,0.5,12-2,16.1
	c0,0-1.8-17.9-3.8-17.1c0,0-2.4,2.3-2.8,8.1c0,0-1.4-11.1,1.4-12.1H12l-3-4.4c0,0,6-1.8,3.2-11.7c0,0,4.6,4.2,2,11.5l4.6-7.1
	c0,0,15.3-5.2,19-9.7c0,0,0.2,6.8-1.2,9.9c0,0,13.7,3,17.5-1.6c0,0-1.6,7.5-4.6,9.7l-6.2,3.4L41,22.6l-1.3-1.4L30.7,17.7z"/>
<path class="st2" d="M47,20.7c0,0,6.5,7.5,10.3,6.1c0,0-1,3.8-13,7.4c0,0,5.1,7.4,8.1,6.9c0,0-2.3,4.5-10.9-1c0,0,6.3-7.9,0.5-16.6"
	/>
<polyline class="st2" points="30.3,35.1 31.4,35.9 33,35.1 "/>
<path class="st2" d="M30,40.2c0,0,4.2-0.3,5.8,0.6"/>
<polyline class="st2" points="42.2,38 40.3,34.5 44,34.5 "/>
</svg>
